# xmcd
#
# Track frame offsets:
#	150
#	22450
#	44692
#	68298
#	89112
#	110223
#	132493
#	149976
#	168277
#	188751
#	206163
#	229983
#
# Disc length: 3257 seconds
#
# Revision: 0
# Processed by: cddbd v1.5.1PL0 Copyright (c) Steve Scherf et al.
# Submitted via: audiograbber 1.82.02
#
DISCID=c60cb70c
DTITLE=Dave Steffen - Eve Of Autumn
DYEAR=2004
DGENRE=Blues
TTITLE0=Phantom Lady
TTITLE1=Sometimes
TTITLE2=Eve Of Autumn
TTITLE3=Workin' Man's Blues
TTITLE4=Beep Beep
TTITLE5=I'm Goin' Home
TTITLE6=Troubled Man
TTITLE7=Could It Be?
TTITLE8=Wayward Wind
TTITLE9=Southbound Train
TTITLE10=Long Cold Rainy Night
TTITLE11=Doin' Time
EXTD=Craig Neuser, Bass, Brian Augustin, Drums
EXTT0=
EXTT1=
EXTT2=
EXTT3=
EXTT4=
EXTT5=
EXTT6=
EXTT7=
EXTT8=
EXTT9=
EXTT10=
EXTT11=
PLAYORDER=
